# xmcd
#
# Track frame offsets: 
#        150
#        4320
#        12276
#        29117
#        53166
#        65827
#        106271
#        109072
#        134565
#        156145
#        174505
#        176696
#        185626
#        194610
#        197459
#        224556
#        240419
#        252508
#        261240
#        265869
#        283230
#
# Disc length: 3888 seconds
#
# Revision: 0
# Processed by: cddbd v1.5.2PL0 Copyright (c) Steve Scherf et al.
# Submitted via: ExactAudioCopy v0.99pb5
#
DISCID=470f2e15
DTITLE=Schneider, Helge - The Best Of Helge Vol. 1
DYEAR=2000
DGENRE=A Cappella
TTITLE0=Ansage
TTITLE1=Viereckiger Hai
TTITLE2=I am the house of New Orleans
TTITLE3=Pubertät
TTITLE4=Philosophie I
TTITLE5=Eine Rose
TTITLE6=Prof. Dr. Schneider
TTITLE7=Es gibt Reis
TTITLE8=My name is Peter
TTITLE9=Der Sensemann
TTITLE10=Gitarre
TTITLE11=Tropfsteinhöhle
TTITLE12=Erziehung
TTITLE13=In Italien
TTITLE14=Auf den Spuren Kana Ben N.
TTITLE15=We gotta Rock, we gotta Roll
TTITLE16=Wenn der Abend kommt
TTITLE17=Sex machine
TTITLE18=In der Fleischerei
TTITLE19=Politiker
TTITLE20=Wurstfachverkäuferin
EXTD=
EXTT0=
EXTT1=
EXTT2=
EXTT3=
EXTT4=
EXTT5=
EXTT6=
EXTT7=
EXTT8=
EXTT9=
EXTT10=
EXTT11=
EXTT12=
EXTT13=
EXTT14=
EXTT15=
EXTT16=
EXTT17=
EXTT18=
EXTT19=
EXTT20=
PLAYORDER=
